<svg width="105" height="130" viewBox="0 0 105 130" fill="none" xmlns="http://www.w3.org/2000/svg">
<g clip-path="url(#clip0_383_15062)">
<path fill-rule="evenodd" clip-rule="evenodd" d="M102.559 2.79669C88.9738 -0.0557661 78.2448 -0.400038 70.0935 0.327831C55.3336 1.64586 48.7946 6.43603 48.7946 6.43603C48.6154 6.5639 48.4562 6.73111 48.3367 6.92783C45.2812 12.0229 43.022 18.4557 41.2504 25.6458C39.0508 34.5475 37.5778 44.6196 36.1148 54.7016C35.9854 55.5966 36.6025 56.413 37.4982 56.5606C46.1969 57.9475 55.1843 58.9409 64.4801 58.6852C69.556 58.5475 88.6553 56.0294 92.2682 53.4819C92.7061 53.1573 93.2037 52.7442 93.8308 51.613C95.9009 47.8065 99.0957 38.6294 101.514 29.3147C103.565 21.4557 105.057 13.518 104.998 8.68848C104.978 6.96717 104.749 5.59996 104.331 4.71472C103.893 3.8098 103.266 3.28849 102.49 3.13111L102.569 2.78684L102.559 2.79669ZM90.4468 51.0819C90.3871 51.0819 90.3274 51.1114 90.2677 51.1311C81.3699 54.0425 72.7509 55.2524 64.4104 55.4491C55.8909 55.6557 47.65 54.7901 39.6679 53.5606C41.0414 44.1278 41.8973 35.3442 43.9576 27.0032C45.6097 20.3147 48.2273 13.7245 51.034 8.92455C52.3378 8.09832 58.4488 4.63602 70.402 3.44586C78.3244 2.65897 88.7648 2.86553 102.002 5.46225L102.072 5.12783C102.251 5.16718 102.35 5.34422 102.44 5.57045C102.589 5.89504 102.669 6.29831 102.738 6.78028C103.077 9.35733 102.46 13.695 101.395 18.6819C99.0559 29.5803 94.4279 43.518 91.5317 49.2721C91.1734 49.9803 90.6857 50.7278 90.4468 51.0819Z" fill="#033B62"/>
<path fill-rule="evenodd" clip-rule="evenodd" d="M36.7921 55.5276C28.6508 57.003 22.9677 58.2325 19.3051 60.0325C16.0705 61.6161 14.2691 63.662 13.5525 66.4653C13.0051 68.5997 13.1444 71.2554 13.9406 74.6489C14.9259 78.8489 16.9363 84.2587 19.7132 91.3997C22.5198 98.5701 24.4805 104.678 24.381 110.305C24.3014 115.36 23.3261 121.459 21.2658 124.38C17.5734 129.613 10.0291 129.101 1.61907 123.564C1.15129 123.239 0.50436 123.357 0.185872 123.819C-0.142568 124.282 -0.0231257 124.921 0.444654 125.236C10.2083 132.298 18.2601 130.96 22.8483 124.813C25.3066 121.528 25.3763 116.787 25.5156 110.983C25.6649 105.003 24.6299 97.8718 21.6838 90.239C18.9767 83.2751 16.797 77.4718 15.8316 73.3898C15.1747 70.6357 14.9757 68.4817 15.4037 66.7407C15.8814 64.8128 17.1852 63.4751 19.3947 62.344C22.8483 60.5636 28.8896 58.5866 36.613 57.003C37.3694 56.8554 38.5737 57.3571 38.4244 56.6194C38.285 55.8817 37.5485 55.3899 36.8021 55.5374L36.7921 55.5276Z" fill="#033B62"/>
<path fill-rule="evenodd" clip-rule="evenodd" d="M21.5861 94.8228C6.33853 105.052 7.6921 115.37 12.3798 114.859C15.3756 114.534 19.9837 109.764 22.9497 98.0589C29.1602 105.446 33.5195 109.488 36.4655 110.315C39.302 111.101 40.9144 108.898 37.6201 105.072C34.684 101.688 26.9905 97.3802 22.9397 93.9572C21.208 92.9244 22.6909 94.0556 21.5961 94.8228H21.5861ZM21.5463 96.5048C20.9591 98.3244 18.7994 103.98 17.0378 107.462C16.3311 108.829 15.5946 110.098 14.8083 111.042C11.7528 114.751 10.1106 111.711 12.5192 107.393C14.4799 103.892 18.461 98.4228 21.5463 96.495V96.5048ZM24.0345 96.5441C26.244 98.0195 30.3048 100.823 33.4996 103.626C39.8295 109.164 37.212 110.934 31.31 105.662C25.3781 100.823 24.1838 96.7507 24.0246 96.5441H24.0345Z" fill="#033B62"/>
<path fill-rule="evenodd" clip-rule="evenodd" d="M13.3244 71.2457C-1.9232 81.4752 -0.569623 91.7932 4.11812 91.2818C7.1139 90.9572 11.722 86.1867 14.6879 74.4818C20.8984 81.8687 25.2578 85.9113 28.2038 86.7277C31.0403 87.5146 32.6527 85.3113 29.3484 81.4851C26.4123 78.1015 18.7188 73.7933 14.6681 70.3703C12.9363 69.3375 14.4192 70.4687 13.3244 71.2359V71.2457ZM13.2846 72.9277C12.6974 74.7474 10.5376 80.4031 8.76604 83.8851C8.06934 85.2523 7.3229 86.5211 6.53663 87.4654C3.48114 91.1834 1.83895 88.1441 4.24751 83.8162C6.2082 80.3146 10.1893 74.8359 13.2747 72.9179L13.2846 72.9277ZM15.7728 72.9572C17.9823 74.4326 22.043 77.2359 25.2379 80.0392C31.5678 85.5769 28.9502 87.3473 23.0483 82.0752C17.1164 77.2359 15.9221 73.1638 15.7628 72.9572H15.7728Z" fill="#033B62"/>
<path fill-rule="evenodd" clip-rule="evenodd" d="M37.7779 54.6226C22.5602 44.3538 13.334 49.3702 15.5335 53.4915C16.9369 56.1275 23.1175 58.6161 35.22 57.0521C30.5522 65.4718 28.3328 70.9603 28.6413 73.9702C28.9299 76.8718 31.6072 77.5406 33.9959 73.1046C36.1059 69.1702 37.3499 60.5144 39.0817 55.5276C39.4201 53.5603 38.8926 55.3308 37.7779 54.6128V54.6226ZM36.1755 55.1931C34.2447 55.321 28.1237 55.4095 24.2023 55.0653C22.6497 54.9177 21.1867 54.7013 20.0123 54.3276C15.3942 52.8817 17.6534 50.2554 22.6 50.8849C26.6209 51.4062 33.2295 53.0587 36.1656 55.1931H36.1755ZM37.0514 57.4948C36.4741 60.062 35.3196 64.8226 33.8565 68.7964C30.9603 76.6456 28.3328 74.8849 31.1394 67.5275C33.5281 60.3079 36.912 57.7112 37.0514 57.4948Z" fill="#033B62"/>
<path fill-rule="evenodd" clip-rule="evenodd" d="M103.125 3.65233C103.533 3.3179 104.14 3.36707 104.479 3.77035C104.817 4.17363 104.767 4.77363 104.359 5.10806C97.6709 10.6359 38.0539 56.2162 37.8847 56.3539C37.4667 56.6785 36.8596 56.5998 36.5312 56.1867C36.2027 55.7736 36.2824 55.1736 36.7004 54.849C36.8696 54.7211 96.4667 9.15068 103.125 3.65233Z" fill="#033B62"/>
<path fill-rule="evenodd" clip-rule="evenodd" d="M48.9844 8.44262C48.5067 8.2164 48.2976 7.64591 48.5166 7.17378C48.7455 6.69181 49.3228 6.49509 49.8005 6.71148C81.51 21.3377 91.5822 54.0524 91.612 54.1508C91.7713 54.6524 91.4926 55.1836 90.975 55.3508C90.4674 55.5082 89.92 55.2327 89.7608 54.7213C89.7309 54.6327 79.8976 22.7049 48.9645 8.44262H48.9844Z" fill="#033B62"/>
<path fill-rule="evenodd" clip-rule="evenodd" d="M48.7941 6.64247C49.2917 6.81952 49.5505 7.37035 49.3713 7.86215C49.1922 8.35395 48.6348 8.61953 48.1372 8.43264C41.5684 6.1015 40.3641 6.67199 34.492 9.44576C33.6559 9.8392 32.7303 10.2818 31.6853 10.754C22.3894 15.0228 18.9956 11.6785 16.5969 9.31788L16.5571 9.27854C16.1789 8.90477 16.1789 8.30478 16.5571 7.93101C16.9353 7.55724 17.5424 7.55724 17.9206 7.93101L17.9605 7.97035C19.961 9.93756 22.7975 12.731 30.8791 9.02281C31.9042 8.55068 32.8298 8.11789 33.6659 7.72445C40.1451 4.66543 41.4688 4.03592 48.804 6.64247H48.7941Z" fill="#033B62"/>
<path fill-rule="evenodd" clip-rule="evenodd" d="M49.454 7.47871C49.9715 7.59674 50.29 8.11805 50.1706 8.62952C50.0511 9.141 49.5237 9.45575 49.0061 9.33772C46.6772 8.7869 43.2435 9.23937 39.7699 10.8525C36.8438 12.2197 33.9078 14.4033 31.6087 17.5213C25.9356 25.2131 9.82213 21.1311 9.78232 21.1213C9.26477 20.9934 8.94632 20.4721 9.07571 19.9607C9.2051 19.4492 9.73258 19.1344 10.2501 19.2623C10.2899 19.2721 25.1593 23.0394 30.0461 16.4C32.5542 12.9967 35.749 10.6164 38.9439 9.13117C42.8254 7.33117 46.7369 6.8492 49.444 7.47871H49.454Z" fill="#033B62"/>
<path fill-rule="evenodd" clip-rule="evenodd" d="M89.4018 52.6459C89.4018 52.1148 89.8496 51.7017 90.3771 51.7017C90.9146 51.7017 91.3326 52.1443 91.3226 52.6656C91.2331 60.3574 90.1781 61.3705 85.0226 66.2984C84.4055 66.8885 83.7188 67.5475 82.823 68.423C76.4931 74.6197 78.1452 78.2098 79.3196 80.7475L79.3395 80.7869C79.5585 81.2688 79.3396 81.8295 78.8618 82.0459C78.3741 82.2623 77.8068 82.0459 77.5879 81.5738L77.5679 81.5246C76.1646 78.4852 74.184 74.177 81.4694 67.0459C82.196 66.3279 82.9822 65.5803 83.6889 64.9016C88.3667 60.4262 89.3221 59.5115 89.4117 52.6066L89.4018 52.6459Z" fill="#033B62"/>
<path fill-rule="evenodd" clip-rule="evenodd" d="M88.8424 51.5341C88.9121 51.0128 89.3898 50.639 89.9173 50.7079C90.4448 50.7767 90.823 51.2587 90.7533 51.78C90.4149 54.5144 88.5936 57.9669 85.5281 60.9275C83.0001 63.3767 79.6262 65.5013 75.5356 66.6325C67.5336 68.8456 65.9213 83.9243 65.9113 83.9734C65.8516 84.4947 65.3739 84.8784 64.8464 84.8193C64.3189 84.7603 63.9307 84.2882 63.9904 83.7669C63.9904 83.7177 65.7421 67.3702 75.0081 64.7931C78.7703 63.7505 81.8655 61.803 84.1746 59.5603C86.9116 56.9046 88.5339 53.8849 88.8325 51.5341H88.8424Z" fill="#033B62"/>
</g>
<defs>
<clipPath id="clip0_383_15062">
<rect width="105" height="130" fill="white"/>
</clipPath>
</defs>
</svg>
