<svg width="210" height="105" viewBox="0 0 210 105" fill="none" xmlns="http://www.w3.org/2000/svg">
<g clip-path="url(#clip0_383_14978)">
<g clip-path="url(#clip1_383_14978)">
<g clip-path="url(#clip2_383_14978)">
<path d="M185.145 32.8655C184.034 32.8655 182.941 32.9694 181.882 33.1078C177.213 24.3852 167.997 18.449 157.374 18.449C153.538 18.449 149.893 19.2278 146.561 20.6297C136.945 8.08225 121.776 0 104.731 0C87.6863 0 72.6209 8.04764 62.9879 20.5258C60.3496 19.2278 57.399 18.4663 54.2574 18.4663C46.3426 18.4663 39.5388 23.1391 36.4146 29.8542C34.0194 29.2137 31.5199 28.8504 28.9338 28.8504C12.9482 28.8504 0 41.7612 0 57.7007C0 73.6402 12.9482 86.5507 28.9338 86.5507C31.5894 86.5507 34.1582 86.1703 36.5881 85.495C40.7191 92.9718 48.7032 98.0603 57.8676 98.0603C63.1094 98.0603 67.9519 96.3811 71.9266 93.5598C80.9178 100.708 92.3208 105 104.713 105C118.252 105 130.593 99.8946 139.913 91.535C143.888 94.2003 148.661 95.7753 153.816 95.7753C163.987 95.7753 172.718 89.6837 176.571 80.9784C179.244 81.9477 182.108 82.5187 185.128 82.5187C198.874 82.5187 210 71.4076 210 57.718C210 44.0284 198.857 32.9174 185.128 32.9174L185.145 32.8655Z" fill="white"/>
<path d="M178.979 35.8862C177.954 35.8862 176.944 35.974 175.967 36.0912C171.657 28.7105 163.15 23.6876 153.344 23.6876C149.804 23.6876 146.44 24.3466 143.363 25.5327C134.487 14.9157 120.484 8.0769 104.751 8.0769C89.0174 8.0769 75.1108 14.8865 66.2188 25.4449C63.7835 24.3466 61.0598 23.7022 58.1599 23.7022C50.854 23.7022 44.5735 27.6562 41.6897 33.3381C39.4786 32.7962 37.1715 32.4888 34.7843 32.4888C20.0283 32.4888 8.07617 43.4133 8.07617 56.9005C8.07617 70.3879 20.0283 81.312 34.7843 81.312C37.2356 81.312 39.6068 80.9905 41.8498 80.4191C45.663 86.7453 53.033 91.0511 61.4924 91.0511C66.331 91.0511 70.801 89.6304 74.4699 87.2429C82.7691 93.2917 93.2958 96.9231 104.735 96.9231C117.232 96.9231 128.623 92.6027 137.227 85.5297C140.896 87.7848 145.301 89.1175 150.06 89.1175C159.449 89.1175 167.508 83.9628 171.064 76.597C173.532 77.417 176.176 77.9003 178.964 77.9003C191.653 77.9003 201.922 68.4987 201.922 56.9152C201.922 45.3317 191.636 35.9301 178.964 35.9301L178.979 35.8862Z" fill="#FFC0CB"/>
</g>
</g>
</g>
<defs>
<clipPath id="clip0_383_14978">
<rect width="210" height="105" fill="white"/>
</clipPath>
<clipPath id="clip1_383_14978">
<rect width="210" height="105" fill="white"/>
</clipPath>
<clipPath id="clip2_383_14978">
<rect width="210" height="105" fill="white"/>
</clipPath>
</defs>
</svg>
