<svg width="80" height="80" viewBox="0 0 80 80" fill="none" xmlns="http://www.w3.org/2000/svg">
<g clip-path="url(#clip0_383_14983)">
<g clip-path="url(#clip1_383_14983)">
<g clip-path="url(#clip2_383_14983)">
<path fill-rule="evenodd" clip-rule="evenodd" d="M25.6443 22.6125C20.4434 26.2798 17.0918 32.6546 17.8459 42.7206C18.6718 53.302 28.3435 58.883 38.4342 59.5288C44.4551 59.9139 50.5837 58.5334 54.9766 55.4941C58.2804 53.2072 60.6085 49.9901 61.2489 45.8844C61.6978 42.922 61.9013 40.2737 61.8653 37.9157C61.7935 32.7969 60.6684 29.0051 58.813 26.2206C52.5707 16.8182 33.8976 16.8063 25.6443 22.6184V22.6125ZM57.5083 27.044C58.9327 29.2954 59.8065 32.2221 60.0279 36.008C60.1895 38.7393 59.9981 41.909 59.3995 45.5882C58.8309 49.1666 56.7662 51.9393 53.8814 53.9241C49.8116 56.7205 44.1319 57.941 38.5718 57.5796C29.4627 56.9812 20.581 52.123 19.8449 42.5665C19.1148 33.3834 22.0414 27.524 26.7635 24.141C34.1969 18.8147 51.8405 18.0564 57.5143 27.044H57.5083Z" fill="#FFD700"/>
<path fill-rule="evenodd" clip-rule="evenodd" d="M39.7984 -0.167758C39.7984 0.762412 39.7385 1.83477 39.7026 2.98415C39.6846 3.66547 39.6727 4.37643 39.6607 5.09331C39.6188 6.9714 39.5709 8.91471 39.535 10.6506C39.5111 11.5097 39.4871 12.3154 39.4931 13.0382C39.5171 15.0289 39.6188 16.3619 39.6188 16.3619C39.6009 16.6997 39.8582 16.984 40.1933 17.0018C40.5285 17.0196 40.8158 16.7649 40.8397 16.433C40.8397 16.433 41.1031 15.1119 41.3005 13.1212C41.4382 11.7052 41.504 9.95741 41.5759 8.12671C41.6237 6.74625 41.6776 5.31845 41.6597 3.95578C41.6417 2.41538 41.534 0.96977 41.4382 -0.23885C41.4202 -0.689123 41.0373 -1.03867 40.5824 -1.01498C40.1275 -0.997202 39.7744 -0.618026 39.7984 -0.167758Z" fill="#FFD700"/>
<path fill-rule="evenodd" clip-rule="evenodd" d="M37.9801 63.1013C37.9801 64.0315 37.9203 65.1038 37.8844 66.2532C37.8604 66.9405 37.8485 67.6455 37.8365 68.3623C37.7946 70.2405 37.7527 72.1838 37.7048 73.92C37.6869 74.7727 37.6629 75.5789 37.6689 76.3015C37.6928 78.2981 37.7946 79.6252 37.7946 79.6252C37.7766 79.957 38.034 80.2415 38.3692 80.2651C38.7103 80.2829 38.9916 80.0279 39.0155 79.6962C39.0155 79.6962 39.2789 78.3809 39.4764 76.3902C39.62 74.9744 39.6859 73.2209 39.7517 71.3958C39.8055 70.0153 39.8535 68.5816 39.8355 67.2248C39.8176 65.6845 39.7158 64.2388 39.6141 63.0302C39.5961 62.5799 39.213 62.2363 38.7582 62.2541C38.3034 62.2719 37.9502 62.651 37.9742 63.1013H37.9801Z" fill="#FFD700"/>
<path fill-rule="evenodd" clip-rule="evenodd" d="M54.8392 2.82432C54.4861 3.68339 54.0312 4.66096 53.5644 5.71554C53.2831 6.34355 53.0078 6.99524 52.7205 7.6588C51.9724 9.38877 51.1943 11.1721 50.5001 12.7658C50.1589 13.5538 49.8298 14.2944 49.5664 14.9639C48.8362 16.8242 48.4292 18.098 48.4292 18.098C48.2856 18.4001 48.4173 18.7616 48.7225 18.9037C49.0277 19.046 49.3928 18.9156 49.5365 18.6135C49.5365 18.6135 50.2786 17.4878 51.2182 15.7104C51.8766 14.4484 52.6008 12.8488 53.3549 11.184C53.9234 9.92198 54.504 8.61268 55.0067 7.34483C55.5693 5.91106 56.0242 4.53061 56.3833 3.36939C56.5329 2.94874 56.3114 2.48661 55.8806 2.33258C55.4556 2.18446 54.9828 2.40368 54.8331 2.83024L54.8392 2.82432Z" fill="#FFD700"/>
<path fill-rule="evenodd" clip-rule="evenodd" d="M29.2707 60.844C28.9175 61.7091 28.4627 62.6807 27.9959 63.7353C27.7205 64.3633 27.4392 65.015 27.152 65.6726C26.4098 67.4026 25.6258 69.1859 24.9375 70.7796C24.5964 71.5676 24.2672 72.3082 24.0039 72.9779C23.2678 74.8318 22.8668 76.1117 22.8668 76.1117C22.7231 76.408 22.8548 76.7752 23.16 76.9178C23.4652 77.0597 23.8303 76.9296 23.974 76.6274C23.974 76.6274 24.7161 75.5013 25.6498 73.7242C26.3141 72.4622 27.0383 70.8685 27.7924 69.1977C28.361 67.9358 28.9475 66.6265 29.4442 65.3586C30.0128 63.9248 30.4617 62.5444 30.8208 61.3832C30.9704 60.9625 30.749 60.4945 30.318 60.3463C29.8931 60.1983 29.4203 60.4234 29.2707 60.844Z" fill="#FFD700"/>
<path fill-rule="evenodd" clip-rule="evenodd" d="M22.4597 3.57676C22.8608 4.41805 23.2797 5.40746 23.7465 6.46204C24.0218 7.09005 24.3211 7.73587 24.6203 8.39345C25.4044 10.1057 26.2004 11.8831 26.9126 13.4649C27.2657 14.247 27.5949 14.9876 27.9121 15.6334C28.7978 17.4226 29.4682 18.5779 29.4682 18.5779C29.5939 18.8919 29.9469 19.0341 30.2642 18.9097C30.5754 18.7853 30.731 18.4298 30.5993 18.1217C30.5993 18.1217 30.2701 16.8183 29.5819 14.9343C29.0971 13.6012 28.3968 11.9897 27.6667 10.313C27.116 9.03927 26.5355 7.72989 25.931 6.50947C25.2488 5.12901 24.5246 3.86706 23.9081 2.81841C23.6986 2.42145 23.2019 2.26741 22.8009 2.4807C22.3999 2.68806 22.2503 3.17981 22.4597 3.57676Z" fill="#FFD700"/>
<path fill-rule="evenodd" clip-rule="evenodd" d="M48.2762 61.4897C48.6772 62.3309 49.0902 63.3263 49.5569 64.3749C49.8382 65.003 50.1315 65.6487 50.4308 66.3004C51.2148 68.0127 52.0108 69.79 52.729 71.3719C53.0821 72.1599 53.4113 72.8943 53.7285 73.5402C54.6142 75.3298 55.2846 76.4907 55.2846 76.4907C55.4103 76.7988 55.7693 76.9474 56.0806 76.8225C56.3918 76.6924 56.5414 76.3429 56.4157 76.0348C56.4157 76.0348 56.0865 74.7313 55.3983 72.8471C54.9075 71.5082 54.2133 69.9026 53.4831 68.2259C52.9325 66.9581 52.3579 65.6428 51.7535 64.4223C51.0652 63.0419 50.353 61.7741 49.7305 60.7313C49.515 60.3343 49.0243 60.1863 48.6173 60.3936C48.2163 60.6009 48.0667 61.0986 48.2762 61.4956V61.4897Z" fill="#FFD700"/>
<path fill-rule="evenodd" clip-rule="evenodd" d="M8.16409 14.6498C8.90028 15.2304 9.71421 15.9414 10.6 16.6819C11.1267 17.1262 11.6773 17.5765 12.2339 18.0327C13.6942 19.2354 15.2024 20.4855 16.5431 21.5993C17.2134 22.1504 17.8299 22.6717 18.4044 23.1161C19.9904 24.3365 21.1096 25.0889 21.1096 25.0889C21.361 25.3141 21.744 25.2903 21.9715 25.0416C22.1929 24.7927 22.175 24.4076 21.9236 24.1884C21.9236 24.1884 21.0497 23.1575 19.5954 21.7652C18.566 20.7758 17.2253 19.6324 15.8249 18.4474C14.7655 17.541 13.6643 16.6167 12.581 15.7814C11.3541 14.8393 10.1452 14.0158 9.12773 13.3404C8.76262 13.0797 8.24788 13.1568 7.97862 13.5181C7.70928 13.8795 7.79307 14.3891 8.15818 14.6498H8.16409Z" fill="#FFD700"/>
<path fill-rule="evenodd" clip-rule="evenodd" d="M57.0311 55.4821C57.7612 56.0687 58.5812 56.7737 59.461 57.5203C59.9877 57.9646 60.5443 58.409 61.1008 58.8711C62.5612 60.0738 64.0694 61.3239 65.41 62.4318C66.0744 62.9768 66.6968 63.5041 67.2714 63.9485C68.8634 65.1749 69.9766 65.9213 69.9766 65.9213C70.2279 66.1465 70.6169 66.1228 70.8444 65.874C71.0658 65.6251 71.0479 65.24 70.7965 65.0208C70.7965 65.0208 69.9167 63.9958 68.4684 62.6036C67.433 61.6141 66.0923 60.4707 64.6978 59.2799C63.6384 58.3793 62.5372 57.4492 61.454 56.6138C60.227 55.6717 59.0181 54.8482 58.0006 54.1728C57.6355 53.9121 57.1209 53.9951 56.8575 54.3565C56.5882 54.7179 56.672 55.2274 57.0371 55.4881L57.0311 55.4821Z" fill="#FFD700"/>
<path fill-rule="evenodd" clip-rule="evenodd" d="M67.7234 11.231C67.0651 11.8946 66.2751 12.6351 65.4431 13.4349C64.9464 13.909 64.4436 14.4184 63.929 14.922C62.5823 16.2491 61.1819 17.6118 59.937 18.8323C59.3205 19.4366 58.734 19.9994 58.2312 20.5267C56.8487 21.9724 55.9929 22.9973 55.9929 22.9973C55.7415 23.2284 55.7295 23.6075 55.957 23.8504C56.1904 24.0993 56.5794 24.117 56.8248 23.886C56.8248 23.886 57.938 23.1217 59.4821 21.8242C60.5714 20.9 61.8522 19.6914 63.1808 18.4235C64.1863 17.4637 65.2277 16.4684 66.1673 15.479C67.2326 14.3592 68.1783 13.2454 68.9504 12.3093C69.2496 11.9775 69.2196 11.4621 68.8785 11.1658C68.5434 10.8696 68.0226 10.8992 67.7234 11.2369V11.231Z" fill="#FFD700"/>
<path fill-rule="evenodd" clip-rule="evenodd" d="M22.01 55.488C21.3516 56.1575 20.5616 56.8862 19.7296 57.6919C19.2389 58.1719 18.7302 58.6695 18.2155 59.179C16.8689 60.5062 15.4684 61.8688 14.2235 63.0893C13.607 63.6936 13.0206 64.2564 12.5238 64.7778C11.1412 66.2294 10.2794 67.2543 10.2794 67.2543C10.034 67.4794 10.0221 67.8645 10.2435 68.1074C10.471 68.3503 10.8599 68.3681 11.1113 68.143C11.1113 68.143 12.2245 67.3787 13.7686 66.0753C14.8639 65.157 16.1387 63.9425 17.4673 62.6745C18.4788 61.7147 19.5142 60.7194 20.4539 59.7301C21.5252 58.6103 22.4648 57.4964 23.2369 56.5604C23.5361 56.2286 23.5062 55.7131 23.1711 55.411C22.8359 55.1147 22.3152 55.1443 22.016 55.482L22.01 55.488Z" fill="#FFD700"/>
<path fill-rule="evenodd" clip-rule="evenodd" d="M76.8643 24.7157C75.9968 25.0711 74.9734 25.4325 73.8835 25.8354C73.2377 26.0784 72.5731 26.339 71.8968 26.6057C70.1313 27.287 68.2939 27.9861 66.666 28.6141C65.852 28.9221 65.0919 29.2065 64.4216 29.4969C62.5723 30.2789 61.3692 30.8832 61.3692 30.8832C61.0461 30.9899 60.8845 31.3394 60.9922 31.6534C61.1059 31.9674 61.4531 32.1333 61.7703 32.0267C61.7703 32.0267 63.1049 31.7601 65.0381 31.1794C66.4086 30.7647 68.0724 30.1545 69.7961 29.5205C71.1128 29.0407 72.4594 28.5371 73.7224 27.998C75.153 27.3877 76.4631 26.7419 77.553 26.1909C77.9653 26.0013 78.1449 25.5155 77.9535 25.1126C77.7621 24.7038 77.2774 24.532 76.8643 24.7157Z" fill="#FFD700"/>
<path fill-rule="evenodd" clip-rule="evenodd" d="M17.116 47.2702C16.2482 47.6198 15.2247 47.9871 14.1414 48.39C13.4951 48.6328 12.8307 48.8935 12.1544 49.1542C10.3888 49.8355 8.55747 50.5346 6.92355 51.1626C6.11559 51.4767 5.34952 51.7551 4.6792 52.0395C2.82984 52.8275 1.62686 53.4259 1.62686 53.4259C1.30966 53.5384 1.13609 53.8821 1.24981 54.1961C1.35754 54.5101 1.71064 54.6759 2.02785 54.5693C2.02785 54.5693 3.36251 54.3027 5.29565 53.7221C6.67217 53.3074 8.32404 52.6972 10.0597 52.0632C11.3704 51.5833 12.717 51.0797 13.9859 50.5406C15.4102 49.9363 16.721 49.2905 17.8102 48.7336C18.2232 48.544 18.3967 48.0641 18.2112 47.6553C18.0197 47.2465 17.5289 47.0747 17.1219 47.2643L17.116 47.2702Z" fill="#FFD700"/>
<path fill-rule="evenodd" clip-rule="evenodd" d="M79.5087 44.7291C78.5754 44.6106 77.5099 44.4388 76.3609 44.267C75.6781 44.1662 74.9724 44.0714 74.2483 43.9707C72.3687 43.71 70.4236 43.4316 68.688 43.1887C67.8261 43.0702 67.0242 42.9458 66.2999 42.8688C64.295 42.6614 62.9484 42.6022 62.9484 42.6022C62.6192 42.5488 62.302 42.7621 62.2422 43.0939C62.1823 43.4257 62.4038 43.7397 62.7389 43.7989C62.7389 43.7989 64.0316 44.2137 66.0067 44.6402C67.4071 44.9483 69.1548 45.2208 70.9802 45.4993C72.3627 45.7185 73.7872 45.9318 75.152 46.074C76.6956 46.2399 78.1624 46.311 79.3831 46.3524C79.8316 46.388 80.2269 46.0503 80.2632 45.606C80.2986 45.1616 79.958 44.7646 79.5028 44.735L79.5087 44.7291Z" fill="#FFD700"/>
<path fill-rule="evenodd" clip-rule="evenodd" d="M16.2548 35.4626C15.3211 35.35 14.2498 35.1663 13.1067 35.0005C12.4244 34.8997 11.7122 34.799 10.994 34.7042C9.1147 34.4436 7.16963 34.1651 5.43995 33.9163C4.5841 33.7978 3.77015 33.6733 3.05195 33.5963C1.04699 33.389 -0.299632 33.3297 -0.299632 33.3297C-0.628805 33.2705 -0.951989 33.4897 -1.00585 33.8215C-1.0657 34.1474 -0.844274 34.4613 -0.5151 34.5206C-0.5151 34.5206 0.777664 34.9354 2.75271 35.3678C4.15917 35.67 5.90678 35.9425 7.72619 36.2269C9.10872 36.4461 10.5331 36.6593 11.8977 36.8016C13.4419 36.9616 14.9082 37.0327 16.1291 37.0741C16.5839 37.1096 16.973 36.772 17.0089 36.3276C17.0448 35.8773 16.7036 35.4863 16.2488 35.4567L16.2548 35.4626Z" fill="#FFD700"/>
<path fill-rule="evenodd" clip-rule="evenodd" d="M34.0133 33.4897C33.7738 33.7504 33.5884 34.1297 33.5285 34.5977C33.5165 34.6925 33.5106 34.7813 33.5046 34.882C33.4926 35.0243 33.4986 35.1664 33.5106 35.3027C33.5525 35.8655 33.726 36.4639 34.0013 36.8787C34.4322 37.5304 35.0726 37.8621 35.8567 37.7022C36.3235 37.6074 36.8681 37.1157 37.0357 36.227C37.1374 35.6937 37.1374 34.9768 37.0896 34.4022C37.1674 34.1593 37.1913 33.946 37.1793 33.8038C37.1315 33.4009 36.9339 33.1284 36.6646 32.9506C36.6167 32.921 36.5688 32.8914 36.515 32.8618C36.3774 32.767 36.2037 32.6899 36.0123 32.6663C35.2581 32.4767 34.5579 32.8144 34.0671 33.4187C34.0432 33.4424 34.0252 33.472 34.0013 33.5016L34.0133 33.4897Z" fill="#FFD700"/>
<path fill-rule="evenodd" clip-rule="evenodd" d="M45.8654 36.529C45.8594 36.612 45.8594 36.689 45.8654 36.766C45.8893 37.3763 46.1586 37.8917 46.6434 38.2057C47.3975 38.7033 48.391 38.4131 48.9476 37.3526C49.0972 37.0682 49.2169 36.7364 49.2828 36.3928C49.3426 36.221 49.3845 36.061 49.4084 35.9069C49.5581 35.1071 49.2349 34.5266 48.8639 34.2895C48.7501 34.2125 48.6244 34.1533 48.5047 34.1118C48.0618 33.857 47.5531 33.863 47.0444 34.2184C46.6015 34.5266 46.1108 35.3205 45.9312 35.978C45.8833 36.1736 45.8594 36.3632 45.8594 36.535L45.8654 36.529Z" fill="#FFD700"/>
<path fill-rule="evenodd" clip-rule="evenodd" d="M31.3544 42.6137C32.9884 46.5713 35.9031 48.2894 38.8058 48.7101C41.4152 49.0892 44.0367 48.3901 45.7723 47.2823C47.1189 46.4232 47.9389 45.2857 48.0705 44.2133C48.1364 43.6445 47.7294 43.135 47.1548 43.0699C46.5863 43.0047 46.0655 43.4016 45.9997 43.9704C45.9638 44.2903 45.7543 44.5984 45.4611 44.8947C45.072 45.2975 44.5394 45.6589 43.911 45.9552C40.8167 47.4185 35.532 47.2941 33.2757 41.8316C33.0602 41.3043 32.4498 41.0555 31.9171 41.2747C31.3844 41.488 31.1331 42.0864 31.3485 42.6137H31.3544Z" fill="#FFD700"/>
<path fill-rule="evenodd" clip-rule="evenodd" d="M31.0659 25.4206C29.1747 26.4633 27.427 27.9385 26.0385 29.9944C24.8116 31.8073 23.86 34.0764 23.3333 36.8788C23.2375 37.4001 23.1598 37.8978 23.1059 38.3777C22.6032 42.9337 23.9378 46.5063 26.3617 49.1073C28.8036 51.7319 32.3646 53.3967 36.2848 54.1195C36.9073 54.232 37.5237 54.3268 38.1402 54.392C39.1277 54.4986 40.1271 54.552 41.1326 54.5579C44.939 54.5697 48.6258 53.8054 51.4626 52.034C54.2576 50.2921 56.2267 47.555 56.6636 43.6092C56.7175 43.0996 56.7474 42.5546 56.7534 41.9799C56.7534 41.0498 56.7474 40.1611 56.7175 39.3197C56.6875 38.437 56.6456 37.6253 56.5918 36.8788C56.3105 33.0396 55.2631 30.2195 53.5933 28.1755C51.9355 26.1434 49.6492 24.8696 46.8842 24.1231C44.3346 23.4299 41.3301 23.1396 38.3915 23.3825C35.7641 23.6017 33.1966 24.2475 31.0599 25.4206H31.0659ZM25.0869 29.3605C26.5832 27.1506 28.4684 25.5568 30.5153 24.4311C32.8015 23.1752 35.5247 22.4879 38.3018 22.2568C41.378 22.0021 44.5261 22.3042 47.1894 23.027C50.1819 23.8387 52.6657 25.231 54.4851 27.4646C56.2986 29.6863 57.4357 32.7138 57.735 36.8018C57.7948 37.5838 57.8366 38.4133 57.8606 39.2842C57.8845 40.1196 57.9025 41.0142 57.8965 41.9858C57.8965 42.5842 57.8606 43.1648 57.8007 43.7336C57.328 48.0645 55.1554 51.0683 52.0732 52.9879C49.0387 54.8838 45.1306 55.7073 41.1267 55.6895C40.1032 55.6895 39.0558 55.6243 38.0145 55.5118C37.3501 55.4407 36.7038 55.3459 36.0814 55.2333C31.9278 54.469 28.1393 52.6917 25.5238 49.8774C22.8845 47.0454 21.4301 43.1767 21.9748 38.2533C22.0346 37.732 22.1124 37.2047 22.2081 36.6774C22.7708 33.7032 23.7762 31.2978 25.0869 29.3605Z" fill="#FFD700"/>
</g>
</g>
</g>
<defs>
<clipPath id="clip0_383_14983">
<rect width="79.25" height="79.25" fill="white"/>
</clipPath>
<clipPath id="clip1_383_14983">
<rect width="79.25" height="79.25" fill="white"/>
</clipPath>
<clipPath id="clip2_383_14983">
<rect width="81.2821" height="81.2821" fill="white" transform="translate(-1.01562 -1.01611)"/>
</clipPath>
</defs>
</svg>
