<svg xmlns="http://www.w3.org/2000/svg" width="760" height="180" viewBox="0 0 760 180">
  <defs>
    <linearGradient id="cloudFill" x1="0" y1="0" x2="0" y2="1">
      <stop offset="0" stop-color="#FFFFFF"/>
      <stop offset="1" stop-color="#F2FAFF"/>
    </linearGradient>
    <linearGradient id="cloudShade" x1="0" y1="0" x2="1" y2="0">
      <stop offset="0" stop-color="#DDF2FF" stop-opacity="0.55"/>
      <stop offset="0.6" stop-color="#DDF2FF" stop-opacity="0.0"/>
      <stop offset="1" stop-color="#DDF2FF" stop-opacity="0.0"/>
    </linearGradient>
  </defs>

  <!-- Transparent background; designed to repeat horizontally -->
  <g fill="url(#cloudFill)" stroke="#B9DFF6" stroke-width="5" stroke-linejoin="round">
    <!-- Cloud 1 -->
    <path d="M72 132c0-18 14-32 32-32 4 0 7 1 10 2 7-18 24-31 44-31 23 0 42 16 47 38 3-1 7-2 11-2 18 0 32 14 32 32s-14 32-32 32H104c-18 0-32-14-32-32z"/>
    <!-- Cloud 2 -->
    <path d="M276 108c0-16 13-29 29-29 3 0 6 0 9 1 6-16 22-28 40-28 21 0 38 14 43 34 3-1 6-1 10-1 16 0 29 13 29 29s-13 29-29 29H305c-16 0-29-13-29-29z"/>
    <!-- Cloud 3 -->
    <path d="M458 142c0-18 14-32 32-32 4 0 8 1 12 2 7-18 24-31 44-31 23 0 42 16 47 38 3-1 7-2 11-2 18 0 32 14 32 32s-14 32-32 32H490c-18 0-32-14-32-32z"/>
    <!-- Cloud 4 -->
    <path d="M624 108c0-16 13-29 29-29 3 0 6 0 9 1 6-16 22-28 40-28 21 0 38 14 43 34 3-1 6-1 10-1 16 0 29 13 29 29s-13 29-29 29H653c-16 0-29-13-29-29z"/>
  </g>

  <!-- Soft shading for a more "real" cartoon look -->
  <g fill="url(#cloudShade)" opacity="0.9">
    <path d="M90 154c22 10 56 14 108 14h10c-10 5-25 8-44 8H108c-18 0-32-14-32-32 0-2 0-3 1-5 2 6 6 11 13 15z"/>
    <path d="M294 130c16 8 40 11 78 11h8c-8 4-18 6-32 6h-43c-16 0-29-13-29-29 0-2 0-3 1-5 2 7 7 13 17 17z"/>
    <path d="M476 164c22 10 56 14 108 14h10c-10 5-25 8-44 8H494c-18 0-32-14-32-32 0-2 0-3 1-5 2 6 6 11 13 15z"/>
  </g>
</svg>

