<svg width="78" height="65" viewBox="0 0 78 65" fill="none" xmlns="http://www.w3.org/2000/svg">
<g clip-path="url(#clip0_383_15074)">
<path fill-rule="evenodd" clip-rule="evenodd" d="M60.7117 47.7409C60.4157 47.2632 59.783 47.1209 59.3033 47.4258C58.8236 47.7308 58.691 48.3508 58.9869 48.8286C59.9258 50.3126 61.2832 51.8068 62.9263 52.7013L62.9977 52.7318C64.3653 53.4535 65.9268 53.7585 67.6005 53.3214C72.2645 52.1016 74.8056 54.8258 74.8056 54.8359C75.1935 55.2425 75.8466 55.2628 76.2548 54.8766C76.6631 54.4903 76.6835 53.8398 76.2957 53.4332C76.2957 53.4332 72.9278 49.8247 67.08 51.3494C65.9574 51.6442 64.896 51.4307 63.9571 50.9428L63.8958 50.9022C62.5895 50.2008 61.4873 48.9607 60.7117 47.7409Z" fill="#033B62"/>
<path fill-rule="evenodd" clip-rule="evenodd" d="M70.2156 51.3899C69.6543 51.4204 69.2154 51.8981 69.246 52.4572C69.246 52.5893 69.2869 52.7215 69.3379 52.8435C68.1745 52.3962 67.3172 52.0404 67.307 52.0303C66.858 51.8473 66.3579 51.9998 66.0823 52.3657L65.572 51.6847C65.2251 51.2374 64.5821 51.1561 64.133 51.5017C63.684 51.8473 63.6023 52.4877 63.9493 52.9349C63.9697 52.9654 72.4404 63.7197 72.767 58.5662C72.8282 57.6412 72.3894 56.6959 71.7362 55.8217C73.2875 56.3096 74.7877 56.6756 75.6042 56.5841C76.4819 56.4926 77.0431 56.2283 77.3391 55.8522C77.7881 55.283 77.7371 54.6833 77.2983 54.0937C77.0738 53.7888 76.7166 53.4838 76.2777 53.1992C74.8183 52.2539 71.9914 51.2882 70.2054 51.3797L70.2156 51.3899ZM70.9708 53.4432C72.0322 53.555 73.3385 53.9717 74.3591 54.4698C73.4304 54.2767 72.1751 53.8701 70.9708 53.4432ZM68.0724 54.9984C69.3277 55.9539 70.8075 57.3363 70.7361 58.4442C70.7361 58.5052 69.389 56.7467 68.0724 54.9984Z" fill="#033B62"/>
<path fill-rule="evenodd" clip-rule="evenodd" d="M54.2224 10.5787C52.8344 10.4567 51.5995 11.5443 51.4668 12.9979C51.3342 14.4616 52.3445 15.7525 53.7325 15.8847C55.1204 16.0168 56.3553 14.919 56.488 13.4655C56.6207 12.0017 55.6103 10.7108 54.2224 10.5787Z" fill="#033B62"/>
<path fill-rule="evenodd" clip-rule="evenodd" d="M74.9922 9.4399C73.9716 9.31792 70.7671 9.66352 69.0627 9.5517C68.4096 9.5517 65.7051 8.87067 65.7051 8.23029C65.7051 7.57975 68.4096 7.22398 69.0627 7.22398C70.267 7.14266 71.8183 6.9292 73.2164 6.9292C74.5228 6.9292 75.6964 7.14266 76.4516 7.49843C77.3701 7.93551 77.8702 8.60639 77.9824 9.4399C78.0641 10.0905 77.8804 10.9748 77.0538 12.0421C76.2985 12.9773 75.7168 13.7803 75.1963 14.4003C73.8084 16.0267 73.2164 16.6163 73.2164 16.6163C72.9715 17.033 72.4306 17.1651 72.0224 16.9212C71.604 16.6772 71.0936 16.3316 71.3386 15.9149C72.4204 14.197 74.2268 12.0726 75.6556 10.0092C76.0842 9.41957 75.8087 9.54154 75.0024 9.45006L74.9922 9.4399Z" fill="#033B62"/>
<path fill-rule="evenodd" clip-rule="evenodd" d="M73.5024 18.4055C75.074 25.4293 73.9004 33.6932 68.8385 41.7641C64.7052 48.3102 58.6328 50.7599 52.2951 50.9835C40.9158 51.3698 28.6589 44.3357 25.7298 41.5201C24.3827 40.219 24.6685 39.1517 25.0359 38.6435C25.3012 38.2979 25.8727 37.9014 26.8218 37.8303C28.5568 37.688 32.7207 38.4504 36.2213 38.0641C37.8746 37.8811 39.3952 37.4949 40.1402 36.3056C40.5587 35.6347 40.6913 34.7402 40.5382 33.5611C39.5789 26.4356 37.7113 21.028 37.4153 16.3928C37.2316 13.567 37.599 11.0055 38.9461 8.52531C40.6097 5.47588 43.2835 2.57893 46.9065 1.1152C58.4287 -3.53009 70.9612 7.13274 73.5024 18.3953V18.4055ZM29.1079 40.6663C33.2514 43.6242 43.0488 48.4626 52.2032 48.1475C57.653 47.9646 62.8783 45.8808 66.4401 40.2597C71.1143 32.9309 72.2573 25.409 70.8796 18.9747C68.8385 9.42997 57.8572 -1.44631 47.7026 3.00585C44.6103 4.35776 42.3855 6.92944 41.0179 9.61294C39.9361 11.7069 39.7218 13.8516 39.9259 16.2099C40.3035 20.8043 42.1915 26.1205 43.2223 33.185C43.7428 36.7935 42.2732 38.7756 40.0177 39.8632C37.0683 41.2965 32.3431 40.8899 29.1488 40.6561H29.1079V40.6663Z" fill="#033B62"/>
<path fill-rule="evenodd" clip-rule="evenodd" d="M28.2278 39.4666C28.0747 39.9748 27.7788 40.2289 27.5134 40.3814C27.095 40.6254 26.5235 40.6254 25.8703 40.1578C25.4315 39.8325 24.8497 39.121 24.2068 38.0943C23.1046 36.3257 21.7166 33.5202 20.4001 30.3183C17.5221 23.3554 14.9401 14.5528 15.0524 10.7816C15.0932 9.66347 15.2973 8.90112 15.5422 8.4437C16.0525 7.50854 16.7975 7.24426 17.6038 7.36624C18.0018 7.42723 18.4814 7.63052 18.9815 8.05744C19.5734 8.57585 20.2879 9.52117 21.0431 10.8426C22.5637 13.5058 24.3599 17.8055 25.8091 22.7354C26.5133 25.1241 29.1157 36.4985 28.2278 39.4564V39.4666ZM26.8092 38.5009C26.9419 38.6229 27.0644 38.6432 27.1562 38.5213C27.1971 38.4806 27.0644 38.5009 27.0338 38.5009C26.9623 38.4806 26.8807 38.4908 26.8092 38.5009ZM17.8793 11.1272C17.8793 13.6176 19.0326 18.1104 20.5328 22.7659C21.3084 25.1851 22.1963 27.6246 23.0638 29.871C23.7169 31.5787 24.3497 33.1543 24.9518 34.5062C25.4927 35.7259 26.0132 37.1388 26.4418 37.9419C26.6051 33.6422 23.2577 23.4469 21.7677 19.4623C20.7165 16.6467 19.6551 14.2072 18.6754 12.4588C18.3896 11.9506 18.1243 11.5033 17.8691 11.1272H17.8793Z" fill="#033B62"/>
<path fill-rule="evenodd" clip-rule="evenodd" d="M25.3399 35.8986C26.9014 37.5555 27.6361 38.6939 27.83 39.3241C27.9831 39.8324 27.8811 40.2186 27.7484 40.4931C27.5341 40.92 27.0646 41.2453 26.2584 41.2046C25.7175 41.1843 24.8296 40.9098 23.7172 40.4016C21.8189 39.5376 19.1042 37.9722 16.2262 36.0409C9.94972 31.8327 2.90788 25.927 0.897372 22.7251C0.305446 21.7696 0.0503103 21.0276 0.00948774 20.5092C-0.0823629 19.452 0.387061 18.8117 1.12186 18.4762C1.48926 18.3034 1.99955 18.2119 2.65271 18.2932C3.42833 18.3949 4.56118 18.7913 5.92873 19.4724C8.68425 20.8548 12.5624 23.4366 16.5222 26.7401C19.6656 29.3728 22.8395 32.4731 25.5746 35.7055L25.3501 35.8986H25.3399ZM26.1155 39.3038C26.289 39.3343 26.4013 39.2936 26.4217 39.131C26.4217 39.0802 26.34 39.1717 26.2992 39.1818C26.2277 39.2123 26.1665 39.253 26.1155 39.3038ZM3.44878 21.4545C4.82653 23.5383 8.29646 26.6284 12.1338 29.6778C14.1239 31.2533 16.2263 32.7983 18.196 34.1909C19.686 35.2481 21.0943 36.2137 22.3496 37.0066C23.4824 37.7181 24.6969 38.6126 25.5032 39.0497C25.1868 38.5414 24.6969 37.8706 24.0233 37.0371L23.7988 37.2302C20.033 33.0525 15.4098 29.1899 11.3275 26.2421C8.87814 24.4734 6.64313 23.0402 4.84694 22.1152C4.32645 21.8509 3.85699 21.6171 3.43856 21.4443L3.44878 21.4545Z" fill="#033B62"/>
<path fill-rule="evenodd" clip-rule="evenodd" d="M52.0411 46.084C52.4085 45.6571 52.3575 45.0167 51.9289 44.6508C51.5003 44.2849 50.8573 44.3357 50.4899 44.7626C48.163 47.4868 44.7237 49.5299 44.7135 49.54C44.2747 49.8043 44.1113 50.3532 44.3053 50.8208C44.4175 51.0749 48.3671 60.3655 54.4088 58.7798C59.1341 57.5397 61.7773 59.8471 61.7875 59.8471C62.2059 60.2232 62.8591 60.1825 63.2265 59.7556C63.6041 59.3389 63.5633 58.6883 63.1346 58.3224C63.1346 58.3224 59.6647 55.2933 53.8884 56.8078C50.3572 57.7328 47.52 52.7623 46.5505 50.7903C47.765 49.9771 50.1939 48.2389 52.0309 46.084H52.0411Z" fill="#033B62"/>
<path fill-rule="evenodd" clip-rule="evenodd" d="M57.1305 56.34C56.5691 56.3705 56.1303 56.8482 56.1609 57.4073C56.1609 57.5394 56.2018 57.6716 56.2528 57.7935C55.0893 57.3463 54.2321 56.9905 54.2219 56.9803C53.7014 56.7669 53.0993 57.0108 52.8849 57.5293C52.8543 57.6004 52.8339 57.6716 52.8237 57.7325L52.7421 57.6411C52.3746 57.2141 51.7317 57.1633 51.303 57.5293C50.8744 57.8952 50.8234 58.5356 51.1908 58.9625C51.2112 58.993 59.3655 68.5987 59.6921 63.5163C59.7533 62.5913 59.3043 61.646 58.6613 60.7718C60.2126 61.2597 61.7128 61.6257 62.5292 61.5342C63.4069 61.4427 63.9682 61.1784 64.2642 60.8023C64.7132 60.2331 64.6622 59.6334 64.2234 59.0438C63.9989 58.7389 63.6417 58.4339 63.2028 58.1493C61.7332 57.204 58.9164 56.2383 57.1305 56.3298V56.34ZM57.8857 58.3933C58.947 58.4949 60.2534 58.9218 61.2739 59.4097C60.3452 59.2166 59.0899 58.81 57.8857 58.3933ZM54.2422 59.4097C55.5486 60.3144 57.7428 62.0526 57.6612 63.3943C57.6612 63.4248 55.6914 61.1073 54.2422 59.4097Z" fill="#033B62"/>
<path fill-rule="evenodd" clip-rule="evenodd" d="M48.9787 21.2419C48.601 20.9878 48.101 21.0793 47.8356 21.4554C47.5805 21.8315 47.6724 22.3295 48.05 22.5837C49.4788 23.5595 50.7442 24.7793 51.775 26.1312C53.2242 28.032 54.2039 30.1971 54.4999 32.3317C54.7958 34.4154 54.4284 36.4586 53.2344 38.1967C52.7445 38.9083 52.1118 39.569 51.3259 40.1687C47.0294 43.4112 44.6515 43.2689 43.6309 42.9132C44.1514 42.1 47.9785 36.3061 48.0601 35.9808C48.3051 35.6047 48.1928 35.0965 47.8152 34.8525C47.4376 34.6086 46.9375 34.7204 46.6926 35.0965C46.6824 35.1066 42.8961 40.8904 39.6405 41.5714C36.7421 42.1813 36.0584 40.4025 36.0584 40.3923C35.8951 39.9756 35.4154 39.7621 34.9969 39.9247C34.5785 40.0874 34.3642 40.5651 34.5275 40.9819C34.5275 40.9819 35.7011 44.0516 39.9671 43.1571C40.6815 43.0047 41.4061 42.6692 42.1001 42.2321L41.7939 42.6997C41.549 43.0352 41.6 43.5027 41.9062 43.7772C41.9062 43.7772 45.1719 46.8266 52.2853 41.4494C53.214 40.7481 53.9692 39.9552 54.5509 39.1014C56.0001 36.9973 56.4288 34.5476 56.0818 32.0775C55.745 29.6685 54.653 27.2391 53.0405 25.1147C51.9076 23.6306 50.5197 22.2889 48.9379 21.2114L48.9787 21.2419Z" fill="#033B62"/>
<path fill-rule="evenodd" clip-rule="evenodd" d="M71.3172 20.1437C71.7356 20.2962 72.2154 20.0827 72.3684 19.666C72.5215 19.2492 72.3072 18.7715 71.8888 18.619C69.7456 17.8262 67.3881 18.1718 65.2654 19.1069C62.714 20.225 60.4584 22.2173 59.2847 24.047C58.1112 25.8868 57.9989 27.747 57.8356 30.2881C57.7234 31.9653 57.6008 33.9678 57.1211 36.448C56.917 37.4746 56.6211 38.3996 56.2332 39.223C54.4575 43.0043 50.8652 44.8339 47.1402 45.6064C43.3233 46.3993 39.3838 46.0943 37.0773 45.6471C36.2915 45.4946 35.7302 45.332 35.4444 45.1998C35.0362 45.0067 34.5464 45.1897 34.3627 45.5963C34.1688 46.0029 34.3524 46.4908 34.7606 46.6737C35.1587 46.8567 35.8629 47.06 36.7814 47.243C39.2308 47.7207 43.4253 48.0358 47.4871 47.1921C51.651 46.3281 55.6924 44.2444 57.7233 39.904C58.1621 38.9587 58.5091 37.9117 58.7336 36.7529C59.2439 34.1609 59.3767 32.1076 59.4787 30.3796C59.6216 28.0824 59.7339 26.4052 60.683 24.911C61.7035 23.3151 63.6835 21.5769 65.9287 20.591C67.7045 19.8083 69.6231 19.5135 71.3274 20.1336L71.3172 20.1437Z" fill="#033B62"/>
</g>
<defs>
<clipPath id="clip0_383_15074">
<rect width="78" height="65" fill="white"/>
</clipPath>
</defs>
</svg>
